<svg xmlns="http://www.w3.org/2000/svg" viewBox="0 0 360 300" fill="none">
<defs><pattern id="grid" width="12" height="12" patternUnits="userSpaceOnUse"><path d="M12 0H0V12" stroke="#FFFFFF" stroke-opacity=".045" stroke-width=".6"/></pattern><pattern id="brick" width="6" height="6" patternUnits="userSpaceOnUse" patternTransform="rotate(45)"><line x1="0" y1="0" x2="0" y2="6" stroke="#5B6672" stroke-width="1"/></pattern><pattern id="cmu" width="7" height="7" patternUnits="userSpaceOnUse" patternTransform="rotate(-45)"><line x1="0" y1="0" x2="0" y2="7" stroke="#4E5864" stroke-width=".8"/><line x1="3.5" y1="0" x2="3.5" y2="7" stroke="#4E5864" stroke-width=".4"/></pattern><pattern id="wood" width="10" height="5" patternUnits="userSpaceOnUse"><path d="M0 2.5 Q2.5 0.6 5 2.5 T10 2.5" stroke="#7A6650" stroke-width=".7"/></pattern><pattern id="conc" width="9" height="9" patternUnits="userSpaceOnUse"><circle cx="2" cy="3" r=".7" fill="#66717C"/><circle cx="6.5" cy="7" r=".5" fill="#66717C"/><path d="M5 1.5 l1.2 1 -1.4.4z" fill="#66717C"/></pattern><pattern id="insul" width="8" height="6" patternUnits="userSpaceOnUse"><path d="M0 3 Q2 0 4 3 T8 3" stroke="#6C7682" stroke-width=".6"/></pattern></defs>
<style>.m{stroke:#E3A866;stroke-width:2.1;stroke-linejoin:round;stroke-linecap:round}.m2{stroke:#E3A866;stroke-width:1.5;stroke-linejoin:round;stroke-linecap:round}.gl{stroke:#9FC3D1;stroke-width:1.6;stroke-linecap:round}.sb{stroke:#7C8591;stroke-width:.9}.hb{fill:url(#brick);stroke:#7C8591;stroke-width:.9}.hc{fill:url(#cmu);stroke:#7C8591;stroke-width:.9}.hw{fill:url(#wood);stroke:#8A7760;stroke-width:.9}.hk{fill:url(#conc);stroke:#7C8591;stroke-width:.9}.hi{fill:url(#insul);stroke:#6C7682;stroke-width:.7}.fr{fill:#2A3038;stroke:#8A949E;stroke-width:.9}.dash{stroke:#8A9099;stroke-width:.7;stroke-dasharray:3 2}.ld{stroke:#A7B0BA;stroke-width:.6}.dot{fill:#DDE3E8}.t{fill:#E4E8EC;font:600 7.2px Inter,Arial,sans-serif;letter-spacing:.07em}.tt{fill:#E3A866;font:700 8.4px Inter,Arial,sans-serif;letter-spacing:.14em}.ts{fill:#8C96A0;font:500 6.4px Inter,Arial,sans-serif;letter-spacing:.12em}</style>
<rect width="360" height="300" fill="url(#grid)"/>
<path class="hb" d="M113.51 252.88 L246.49 252.88 L246.49 158.69 L113.51 158.69 Z"/>
<path class="m" d="M107.09 192.72 L104.15 195.66 L104.04 195.74 L103.91 195.80 L103.77 195.82 L103.63 195.80 L103.50 195.74 L103.39 195.66 L103.37 195.64 L103.28 195.53 L103.23 195.40 L103.21 195.26 L103.23 195.12 L103.28 194.99 L103.37 194.87 L108.69 189.55 L108.81 189.42 L108.90 189.28 L108.98 189.12 L109.04 188.96 L109.07 188.78 L109.08 188.61 L109.08 153.95 L109.13 153.60 L109.26 153.28 L109.48 153.00 L109.76 152.79 L110.09 152.66 L110.44 152.62 L249.62 155.34 L249.95 155.39 L250.27 155.53 L250.54 155.74 L250.75 156.01 L250.87 156.33 L250.92 156.67 L250.92 184.73 L250.93 184.91 L250.96 185.08 L251.02 185.24 L251.10 185.40 L251.19 185.54 L251.31 185.67 L256.63 190.99 L256.72 191.11 L256.77 191.24 L256.79 191.38 L256.77 191.52 L256.72 191.65 L256.63 191.76 L256.61 191.78 L256.50 191.86 L256.37 191.92 L256.23 191.94 L256.09 191.92 L255.96 191.86 L255.85 191.78 L253.46 189.39"/>
<path class="sb" d="M136.78 122.12 L205.93 122.12"/>
<path class="sb" d="M136.78 122.12 L136.78 87.55"/>
<path class="sb" d="M147.86 111.04 L205.93 111.04"/>
<path class="sb" d="M147.86 111.04 L147.86 87.55"/>
<path class="m2" d="M132.91 126.00 L205.93 126.00"/>
<path class="m2" d="M132.91 126.00 L132.91 87.55"/>
<path class="dash" d="M132.91 126.00 L150.08 108.82"/>
<path class="ld" d="M140.1 118.8 L96.0 116.2 H88.0"/>
<circle class="dot" cx="140.1" cy="118.8" r="1.5"/>
<text class="t" x="14" y="118.8" text-anchor="start">MITRED CORNER</text>
<text class="t" x="14" y="127.4" text-anchor="start">(PLAN)</text>
<path class="ld" d="M104.1 194.1 L96.0 191.5 H88.0"/>
<circle class="dot" cx="104.1" cy="194.1" r="1.5"/>
<text class="t" x="14" y="194.1" text-anchor="start">HEMMED DRIP</text>
<text class="t" x="14" y="202.7" text-anchor="start">BOTH FACES</text>
<path class="ld" d="M180.0 153.9 L264.0 151.3 H272.0"/>
<circle class="dot" cx="180.0" cy="153.9" r="1.5"/>
<text class="t" x="346" y="153.9" text-anchor="end">CAP SLOPED</text>
<text class="t" x="346" y="162.5" text-anchor="end">TO ROOF SIDE</text>
<path class="ld" d="M196.6 225.2 L264.0 222.6 H272.0"/>
<circle class="dot" cx="196.6" cy="225.2" r="1.5"/>
<text class="t" x="346" y="225.2" text-anchor="end">MASONRY</text>
<text class="t" x="346" y="233.8" text-anchor="end">PARAPET</text>
<text class="tt" x="14" y="22">SECTION + PLAN — PARAPET CAP</text>
<text class="ts" x="14" y="33">TYPICAL DETAIL · NOT TO SCALE</text>
<text class="ts" x="346" y="22" text-anchor="end">CW METALS INC.</text>
<path class="ld" d="M14 40 H346" stroke-opacity=".5"/>
</svg>